<?xml version="1.0" standalone="no"?>
<!DOCTYPE svg PUBLIC "-//W3C//DTD SVG 20010904//EN"
 "http://www.w3.org/TR/2001/REC-SVG-20010904/DTD/svg10.dtd">
<svg version="1.0" xmlns="http://www.w3.org/2000/svg"
 width="386.000000pt" height="60.000000pt" viewBox="0 0 386.000000 60.000000"
 preserveAspectRatio="xMidYMid meet">

<g transform="translate(0.000000,60.000000) scale(0.100000,-0.100000)"
fill="#000000" stroke="none">
<path d="M317 592 c-14 -3 -17 -16 -17 -82 0 -75 1 -78 25 -82 21 -5 29 3 64
62 55 92 55 94 -4 100 -28 3 -58 4 -68 2z"/>
<path d="M3401 577 c-61 -16 -88 -28 -99 -45 -14 -21 -12 -24 26 -60 70 -65
90 -132 40 -132 -36 0 -66 27 -79 70 -7 22 -15 40 -18 40 -8 0 -48 -59 -57
-83 -6 -16 -2 -18 21 -15 31 3 48 28 20 28 -14 0 -15 3 -5 15 17 21 27 19 34
-8 11 -45 45 -77 81 -77 66 0 68 72 4 159 -17 24 -28 46 -24 49 3 4 38 16 78
27 50 14 73 26 75 38 4 20 8 21 -97 -6z"/>
<path d="M200 571 c-25 -10 -44 -23 -43 -29 2 -6 18 -36 37 -65 30 -47 38 -54
60 -50 25 5 26 8 26 84 0 90 -2 91 -80 60z"/>
<path d="M416 499 c-46 -77 -51 -104 -23 -114 13 -6 217 102 217 114 0 8 -79
54 -121 69 -24 10 -28 6 -73 -69z"/>
<path d="M1238 570 c-3 -8 -1 -31 3 -50 4 -19 10 -65 14 -103 4 -38 13 -74 22
-82 19 -19 47 -19 63 0 12 14 15 14 31 -1 14 -13 22 -14 32 -6 10 8 24 8 53 1
68 -19 239 5 277 38 28 26 19 32 -23 16 -49 -20 -86 -7 -96 32 -8 32 -4 36 43
45 l38 7 -28 13 c-51 25 -93 -30 -70 -90 l11 -30 -71 1 c-101 1 -120 8 -132
47 -12 42 -35 38 -58 -11 -19 -40 -50 -50 -66 -19 -5 9 -12 51 -16 92 -8 84
-19 123 -27 100z m152 -191 c0 -6 -4 -7 -10 -4 -5 3 -10 11 -10 16 0 6 5 7 10
4 6 -3 10 -11 10 -16z"/>
<path d="M1566 564 c-3 -9 -3 -20 0 -25 3 -6 0 -18 -8 -27 -12 -16 -11 -16 7
-2 11 8 21 14 22 15 1 0 4 12 8 28 6 20 4 27 -8 27 -8 0 -18 -7 -21 -16z"/>
<path d="M1900 568 c0 -7 7 -48 15 -91 8 -43 15 -90 15 -104 0 -25 -1 -25 -51
-19 -29 4 -66 9 -83 12 l-31 5 24 -20 c13 -12 41 -24 62 -27 24 -4 39 -12 39
-20 0 -10 5 -12 18 -5 44 23 378 36 437 18 34 -11 49 8 50 60 0 26 -4 48 -10
48 -6 0 -8 -17 -7 -38 4 -37 3 -38 -25 -35 -25 3 -28 7 -31 43 -2 22 -7 44
-12 49 -14 14 -39 -12 -46 -49 -5 -30 -9 -33 -56 -38 -60 -8 -70 -3 -62 27 7
28 -18 56 -48 56 -12 0 -50 -16 -85 -36 -36 -20 -66 -34 -67 -32 -9 9 -14 136
-6 148 5 8 2 22 -8 36 -19 26 -32 31 -32 12z m406 -169 c8 -14 -11 -33 -25
-25 -11 7 -4 36 9 36 5 0 12 -5 16 -11z m-191 -8 c6 -11 -43 -28 -105 -36
l-45 -6 45 25 c46 26 94 33 105 17z"/>
<path d="M2115 570 c-3 -5 1 -10 10 -10 9 0 13 -4 10 -10 -3 -6 1 -7 9 -4 9 3
16 12 16 20 0 16 -36 19 -45 4z"/>
<path d="M2332 570 c-18 -4 -36 -11 -40 -15 -10 -11 81 4 93 16 11 11 -5 11
-53 -1z"/>
<path d="M2693 565 c-3 -9 -3 -19 1 -22 3 -4 6 -1 6 6 0 7 5 9 10 6 6 -3 10 1
10 9 0 21 -19 21 -27 1z"/>
<path d="M1303 545 c7 -13 14 -20 15 -14 5 14 -6 39 -17 39 -5 0 -4 -11 2 -25z"/>
<path d="M2654 543 l29 -27 -27 -23 c-15 -13 -22 -23 -16 -23 6 0 22 11 36 25
l24 24 -22 26 c-12 14 -29 25 -37 25 -11 0 -7 -8 13 -27z"/>
<path d="M2860 560 c-12 -8 -9 -10 12 -7 15 1 30 6 34 10 11 11 -29 8 -46 -3z"/>
<path d="M3090 558 c-25 -5 -49 -14 -55 -20 -7 -7 -4 -8 10 -5 11 3 37 9 58
13 20 3 37 10 37 15 0 5 -1 9 -2 8 -2 -1 -23 -6 -48 -11z"/>
<path d="M3213 563 c-18 -6 -16 -23 2 -23 8 0 12 -6 9 -14 -7 -18 26 -30 40
-15 8 8 8 13 -1 16 -7 2 -10 10 -7 17 5 14 -22 26 -43 19z"/>
<path d="M3660 559 c-81 -14 -81 -26 0 -15 39 5 70 13 70 18 0 4 -3 7 -7 7 -5
-1 -33 -5 -63 -10z"/>
<path d="M2495 553 c-69 -14 -69 -14 -54 -24 13 -8 45 -6 108 7 20 4 22 7 10
15 -15 9 -30 10 -64 2z"/>
<path d="M91 498 c-48 -48 -47 -49 37 -93 48 -26 54 -27 69 -13 14 15 13 20
-12 65 -53 90 -46 88 -94 41z"/>
<path d="M1097 534 c-14 -14 -7 -25 13 -22 12 2 21 8 21 13 0 12 -24 18 -34 9z"/>
<path d="M1425 525 l-40 -14 45 6 c25 3 54 9 65 14 36 14 -25 9 -70 -6z"/>
<path d="M3686 511 c-6 -10 33 -20 52 -13 7 2 12 8 12 13 0 12 -57 12 -64 0z"/>
<path d="M2205 500 c-4 -6 7 -10 24 -10 17 0 31 5 31 10 0 6 -11 10 -24 10
-14 0 -28 -4 -31 -10z"/>
<path d="M2335 490 c-8 -13 20 -24 40 -16 8 3 15 10 15 16 0 13 -47 13 -55 0z"/>
<path d="M3127 491 c-21 -3 -37 -10 -37 -16 1 -12 101 -7 115 6 5 6 5 9 -2 9
-6 0 -17 2 -25 4 -7 1 -30 0 -51 -3z"/>
<path d="M2478 450 c-47 -48 -49 -70 -9 -70 17 0 33 5 37 11 4 7 12 -1 20 -20
18 -44 55 -59 89 -37 24 16 28 16 44 2 21 -19 52 -21 69 -4 9 9 17 7 33 -8 12
-10 24 -14 26 -9 2 7 41 9 106 7 74 -3 114 0 146 11 38 14 46 14 58 1 24 -24
50 -17 56 15 7 33 -1 71 -15 71 -5 0 -7 -13 -3 -30 5 -22 3 -30 -7 -30 -20 0
-38 21 -39 45 0 19 -1 19 -9 -3 -13 -31 -50 -43 -146 -44 -100 -1 -144 14
-144 49 0 35 -31 26 -49 -15 -14 -31 -32 -39 -65 -26 -9 3 -16 12 -16 20 0 20
-13 17 -33 -6 -22 -27 -62 -26 -81 2 -9 12 -16 42 -16 65 0 24 -3 43 -7 43 -5
0 -25 -18 -45 -40z m37 -20 c-3 -5 -14 -10 -23 -9 -14 0 -13 2 3 9 27 11 27
11 20 0z m265 -61 c0 -11 -4 -17 -10 -14 -5 3 -10 13 -10 21 0 8 5 14 10 14 6
0 10 -9 10 -21z"/>
<path d="M3746 483 c-4 -5 -24 -8 -44 -8 -21 0 -37 -6 -40 -14 -4 -11 7 -13
59 -7 71 8 87 15 68 27 -17 11 -33 11 -43 2z"/>
<path d="M515 421 c-55 -31 -99 -60 -97 -64 1 -4 2 -16 2 -27 0 -19 7 -20 160
-20 104 0 160 4 160 10 0 36 -90 161 -114 159 -6 0 -56 -26 -111 -58z"/>
<path d="M2915 466 c-19 -15 -18 -15 17 -16 20 0 40 5 43 10 3 6 2 10 -4 10
-5 0 -15 2 -23 5 -7 3 -22 -1 -33 -9z"/>
<path d="M1180 441 c0 -8 9 -34 21 -58 25 -51 17 -69 -37 -79 -44 -8 -71 14
-77 65 -3 21 -4 14 -3 -18 1 -46 5 -57 27 -73 33 -25 84 -14 112 23 16 22 17
31 8 67 -12 43 -50 98 -51 73z"/>
<path d="M22 398 c-6 -18 -13 -45 -16 -60 l-6 -28 80 0 c73 0 80 2 80 20 0 11
1 23 3 27 2 6 -111 73 -125 73 -3 0 -11 -15 -16 -32z"/>
<path d="M228 394 c-35 -19 -48 -43 -48 -92 0 -73 62 -118 140 -101 68 15 99
86 68 154 -23 51 -103 70 -160 39z"/>
<path d="M3837 403 c-4 -3 -7 -15 -7 -25 0 -22 -16 -24 -28 -2 -8 15 -10 15
-15 0 -4 -9 -15 -16 -26 -16 -15 0 -18 5 -14 21 5 19 4 19 -20 -5 -24 -24 -33
-26 -112 -26 -78 0 -88 2 -110 25 -14 13 -25 21 -26 17 0 -4 -2 -20 -3 -36 -3
-41 -39 -66 -95 -66 -43 -1 -45 -2 -27 -15 34 -26 81 -19 110 16 14 17 26 35
26 40 0 5 13 3 30 -6 37 -19 217 -19 254 0 18 10 27 10 36 1 16 -15 40 18 40
56 0 29 -2 33 -13 21z"/>
<path d="M6 273 c13 -61 26 -93 37 -93 17 1 120 64 118 73 0 4 -1 16 -1 27 0
18 -7 20 -80 20 l-80 0 6 -27z"/>
<path d="M417 274 c-3 -18 1 -29 17 -38 43 -26 97 -56 102 -56 9 0 34 69 34
95 0 24 -1 25 -74 25 -71 0 -74 -1 -79 -26z"/>
<path d="M2603 293 c-24 -2 -43 -8 -43 -14 0 -5 6 -9 13 -9 6 -1 36 -3 64 -5
44 -3 75 7 61 20 -7 8 -55 12 -95 8z"/>
<path d="M155 218 c-106 -57 -106 -57 -90 -81 8 -13 28 -33 44 -45 l29 -21 36
60 c41 69 40 66 22 85 -17 17 -15 16 -41 2z"/>
<path d="M382 218 c-7 -7 -12 -16 -12 -21 0 -17 65 -117 75 -117 6 0 28 17 49
38 l37 39 -23 15 c-24 16 -105 58 -111 58 -1 0 -8 -5 -15 -12z"/>
<path d="M222 176 c-25 -33 -62 -107 -58 -115 5 -8 83 -31 105 -31 7 0 11 29
11 74 0 71 -1 74 -25 78 -14 3 -29 0 -33 -6z"/>
<path d="M323 183 c-21 -4 -23 -10 -23 -79 l0 -76 33 7 c34 7 87 25 87 30 0 5
-72 125 -74 124 0 -1 -11 -4 -23 -6z"/>
<path d="M3339 161 c-26 -21 -32 -79 -10 -105 16 -20 84 -21 100 -3 6 8 14 28
17 45 5 25 1 36 -19 56 -31 31 -56 33 -88 7z m72 -32 c8 -16 8 -28 0 -45 -14
-31 -48 -31 -62 0 -14 30 3 66 31 66 11 0 24 -10 31 -21z"/>
<path d="M1060 106 c0 -52 3 -66 15 -66 9 0 15 9 15 25 0 21 5 25 29 25 17 0
33 6 38 13 5 8 10 0 13 -23 5 -33 7 -35 44 -35 24 0 41 5 44 14 3 10 -3 12
-26 6 -18 -3 -33 -2 -37 4 -4 7 7 11 29 11 28 0 36 4 36 18 0 10 -5 23 -12 30
-15 15 -55 16 -64 1 -4 -7 -11 -2 -18 13 -9 18 -21 24 -59 26 l-47 3 0 -65z
m75 24 c0 -8 -10 -16 -22 -18 -18 -3 -23 2 -23 18 0 16 5 21 23 18 12 -2 22
-10 22 -18z m90 -20 c3 -5 -1 -10 -9 -10 -9 0 -16 5 -16 10 0 6 4 10 9 10 6 0
13 -4 16 -10z"/>
<path d="M1550 105 c0 -51 3 -65 15 -65 12 0 15 14 15 65 0 51 -3 65 -15 65
-12 0 -15 -14 -15 -65z"/>
<path d="M2060 105 l0 -65 39 0 c50 0 71 21 71 69 0 48 -14 61 -67 61 l-43 0
0 -65z m78 3 c3 -29 -1 -38 -17 -43 -30 -9 -41 2 -41 39 0 39 7 48 35 44 15
-2 21 -12 23 -40z"/>
<path d="M2510 105 c0 -51 3 -65 15 -65 12 0 15 14 15 65 0 51 -3 65 -15 65
-12 0 -15 -14 -15 -65z"/>
<path d="M1277 148 c-2 -7 -1 -33 2 -58 5 -37 10 -46 29 -48 12 -2 22 1 22 7
0 6 -4 11 -10 11 -15 0 -12 58 2 62 9 3 8 9 -4 21 -20 20 -34 22 -41 5z"/>
<path d="M3197 148 c-2 -7 -1 -33 2 -58 5 -38 10 -45 31 -48 20 -3 23 -1 13 9
-15 15 -17 69 -3 69 6 0 5 8 -2 20 -14 23 -34 26 -41 8z"/>
<path d="M1360 88 c0 -36 4 -48 15 -48 10 0 15 11 15 35 0 24 5 35 15 35 8 0
15 6 15 13 0 8 -12 14 -30 14 -29 0 -30 -2 -30 -49z"/>
<path d="M1442 128 c-7 -7 -12 -24 -12 -38 0 -33 17 -50 50 -50 33 0 50 17 50
50 0 33 -17 50 -50 50 -14 0 -31 -5 -38 -12z m56 -41 c3 -22 -1 -27 -17 -27
-15 0 -21 6 -21 23 0 46 33 49 38 4z"/>
<path d="M1611 126 c-7 -8 -11 -30 -9 -48 3 -31 5 -33 42 -33 24 0 41 5 44 14
3 10 -3 12 -26 6 -18 -3 -33 -2 -37 4 -4 7 7 11 29 11 28 0 36 4 36 18 0 39
-55 58 -79 28z m49 -16 c0 -5 -7 -10 -15 -10 -8 0 -15 5 -15 10 0 6 7 10 15
10 8 0 15 -4 15 -10z"/>
<path d="M1712 93 l3 -48 43 -1 42 -2 0 49 c0 27 -4 49 -10 49 -5 0 -10 -11
-10 -24 0 -35 -10 -56 -26 -56 -10 0 -14 12 -14 40 0 30 -4 40 -16 40 -12 0
-14 -10 -12 -47z"/>
<path d="M1830 88 c0 -35 4 -48 14 -48 10 0 16 13 18 38 4 48 22 48 26 0 5
-55 32 -52 32 3 0 52 24 48 28 -4 4 -48 32 -52 32 -4 0 53 -12 62 -85 63 l-65
0 0 -48z"/>
<path d="M2203 128 c-17 -22 -21 -42 -12 -66 7 -19 15 -23 46 -20 20 2 38 9
41 17 3 10 -3 12 -26 6 -18 -3 -33 -2 -37 4 -4 7 7 11 29 11 28 0 36 4 36 18
0 37 -55 58 -77 30z m42 -18 c3 -5 -1 -10 -9 -10 -9 0 -16 5 -16 10 0 6 4 10
9 10 6 0 13 -4 16 -10z"/>
<path d="M2294 128 c2 -7 10 -30 17 -50 17 -54 43 -50 63 9 19 56 19 53 2 53
-7 0 -18 -15 -23 -32 l-10 -33 -13 33 c-6 17 -19 32 -27 32 -8 0 -12 -6 -9
-12z"/>
<path d="M2412 128 c-17 -17 -15 -63 2 -77 18 -15 68 -11 74 6 2 9 -5 11 -27
7 -20 -4 -31 -2 -31 5 0 6 16 11 35 11 39 0 42 6 19 38 -17 24 -53 29 -72 10z
m53 -18 c3 -5 -3 -10 -15 -10 -12 0 -18 5 -15 10 3 6 10 10 15 10 5 0 12 -4
15 -10z"/>
<path d="M2576 124 c-35 -34 -11 -84 40 -84 27 0 37 5 46 25 23 52 -46 100
-86 59z m59 -24 c8 -24 -1 -40 -21 -40 -17 0 -28 24 -20 45 8 22 34 18 41 -5z"/>
<path d="M2685 132 c-3 -3 -5 -34 -5 -69 0 -49 3 -63 15 -63 8 0 15 9 15 19 0
15 8 21 33 23 28 3 32 7 35 36 2 18 -2 40 -8 47 -11 13 -74 18 -85 7z m68 -58
c-8 -20 -37 -13 -41 10 -5 26 20 40 35 20 6 -9 9 -22 6 -30z"/>
<path d="M2800 89 c0 -36 4 -49 14 -49 10 0 16 13 18 38 4 48 22 48 26 0 4
-51 30 -51 34 0 4 48 22 48 26 0 2 -26 8 -38 18 -38 12 0 14 11 12 48 l-3 47
-72 1 -73 2 0 -49z"/>
<path d="M2981 126 c-7 -8 -11 -30 -9 -48 3 -31 5 -33 42 -33 24 0 41 5 44 14
3 10 -3 12 -26 6 -18 -3 -33 -2 -37 4 -4 7 7 11 29 11 28 0 36 4 36 18 0 39
-55 58 -79 28z m49 -16 c0 -5 -7 -10 -15 -10 -8 0 -15 5 -15 10 0 6 7 10 15
10 8 0 15 -4 15 -10z"/>
<path d="M3080 89 c0 -36 4 -49 14 -49 10 0 16 13 18 38 2 25 8 37 18 37 10 0
16 -12 18 -37 2 -25 8 -38 18 -38 16 0 19 36 4 74 -8 21 -15 25 -50 24 l-40 0
0 -49z"/>
<path d="M3470 89 c0 -57 17 -66 22 -11 4 51 32 51 36 0 4 -48 22 -50 22 -4 0
38 17 57 31 35 5 -8 9 -26 9 -41 0 -16 5 -28 11 -28 6 0 9 19 7 48 l-3 47 -67
1 -68 1 0 -48z"/>
<path d="M3643 125 c-3 -9 -3 -19 1 -22 3 -3 1 -12 -5 -19 -20 -25 -2 -44 41
-44 l40 0 0 44 c0 31 -5 46 -16 50 -28 11 -54 6 -61 -9z m47 -15 c0 -5 -7 -10
-16 -10 -8 0 -12 5 -9 10 3 6 10 10 16 10 5 0 9 -4 9 -10z m0 -40 c0 -5 -7
-10 -15 -10 -8 0 -15 5 -15 10 0 6 7 10 15 10 8 0 15 -4 15 -10z"/>
<path d="M3745 132 c-3 -3 -5 -25 -5 -49 0 -56 27 -61 32 -5 2 25 8 37 18 37
10 0 16 -12 18 -37 2 -25 8 -38 18 -38 18 0 19 73 1 88 -13 11 -72 13 -82 4z"/>
</g>
</svg>
